<svg width="56" height="57" viewBox="0 0 56 57" fill="none" xmlns="http://www.w3.org/2000/svg">
<g opacity="0.7">
<rect y="0.5" width="56" height="56" rx="28" fill="white"/>
<path d="M40.5 13.5H36.75V12.25C36.75 11.9185 36.6183 11.6005 36.3839 11.3661C36.1495 11.1317 35.8315 11 35.5 11C35.1685 11 34.8505 11.1317 34.6161 11.3661C34.3817 11.6005 34.25 11.9185 34.25 12.25V13.5H21.75V12.25C21.75 11.9185 21.6183 11.6005 21.3839 11.3661C21.1495 11.1317 20.8315 11 20.5 11C20.1685 11 19.8505 11.1317 19.6161 11.3661C19.3817 11.6005 19.25 11.9185 19.25 12.25V13.5H15.5C14.837 13.5 14.2011 13.7634 13.7322 14.2322C13.2634 14.7011 13 15.337 13 16V41C13 41.663 13.2634 42.2989 13.7322 42.7678C14.2011 43.2366 14.837 43.5 15.5 43.5H40.5C41.163 43.5 41.7989 43.2366 42.2678 42.7678C42.7366 42.2989 43 41.663 43 41V16C43 15.337 42.7366 14.7011 42.2678 14.2322C41.7989 13.7634 41.163 13.5 40.5 13.5ZM19.25 18.5V17.25C19.25 16.9185 19.3817 16.6005 19.6161 16.3661C19.8505 16.1317 20.1685 16 20.5 16C20.8315 16 21.1495 16.1317 21.3839 16.3661C21.6183 16.6005 21.75 16.9185 21.75 17.25V18.5C21.75 18.8315 21.6183 19.1495 21.3839 19.3839C21.1495 19.6183 20.8315 19.75 20.5 19.75C20.1685 19.75 19.8505 19.6183 19.6161 19.3839C19.3817 19.1495 19.25 18.8315 19.25 18.5ZM32.15 34.6047C30.9528 35.5964 29.6557 36.461 28.2797 37.1844C28.1929 37.2278 28.0971 37.2504 28 37.2504C27.9029 37.2504 27.8071 37.2278 27.7203 37.1844C26.3443 36.461 25.0472 35.5964 23.85 34.6047C21.2125 32.4063 19.875 30.1422 19.875 27.875C19.8754 26.9186 20.1892 25.9887 20.7683 25.2276C21.3474 24.4666 22.16 23.9162 23.0817 23.6608C24.0033 23.4054 24.9832 23.459 25.8715 23.8135C26.7597 24.1679 27.5074 24.8037 28 25.6234C28.4926 24.8037 29.2403 24.1679 30.1285 23.8135C31.0168 23.459 31.9967 23.4054 32.9183 23.6608C33.84 23.9162 34.6525 24.4666 35.2317 25.2276C35.8108 25.9887 36.1246 26.9186 36.125 27.875C36.125 30.1422 34.7875 32.4063 32.15 34.6047ZM36.75 18.5C36.75 18.8315 36.6183 19.1495 36.3839 19.3839C36.1495 19.6183 35.8315 19.75 35.5 19.75C35.1685 19.75 34.8505 19.6183 34.6161 19.3839C34.3817 19.1495 34.25 18.8315 34.25 18.5V17.25C34.25 16.9185 34.3817 16.6005 34.6161 16.3661C34.8505 16.1317 35.1685 16 35.5 16C35.8315 16 36.1495 16.1317 36.3839 16.3661C36.6183 16.6005 36.75 16.9185 36.75 17.25V18.5Z" fill="#044343"/>
</g>
</svg>
