<svg xmlns="http://www.w3.org/2000/svg" xmlns:xlink="http://www.w3.org/1999/xlink" width="500" zoomAndPan="magnify" viewBox="0 0 375 374.999991" height="500" preserveAspectRatio="xMidYMid meet" version="1.2"><defs><clipPath id="e76581dd30"><path d="M 13.441406 13.441406 L 360 13.441406 L 360 360 L 13.441406 360 Z M 13.441406 13.441406 "/></clipPath><clipPath id="d061a80f9e"><path d="M 359.457031 186.449219 C 359.457031 189.28125 359.386719 192.109375 359.246094 194.9375 C 359.109375 197.765625 358.902344 200.589844 358.625 203.40625 C 358.347656 206.226562 358 209.035156 357.582031 211.835938 C 357.167969 214.636719 356.683594 217.425781 356.132812 220.203125 C 355.578125 222.976562 354.960938 225.738281 354.273438 228.488281 C 353.582031 231.234375 352.828125 233.960938 352.007812 236.671875 C 351.183594 239.378906 350.296875 242.066406 349.34375 244.734375 C 348.390625 247.398438 347.371094 250.039062 346.285156 252.65625 C 345.203125 255.273438 344.054688 257.859375 342.847656 260.417969 C 341.636719 262.980469 340.363281 265.507812 339.027344 268.003906 C 337.691406 270.5 336.296875 272.964844 334.84375 275.394531 C 333.386719 277.820312 331.871094 280.210938 330.300781 282.566406 C 328.726562 284.921875 327.097656 287.234375 325.410156 289.507812 C 323.722656 291.785156 321.980469 294.015625 320.1875 296.203125 C 318.390625 298.390625 316.539062 300.535156 314.640625 302.632812 C 312.738281 304.730469 310.785156 306.78125 308.785156 308.785156 C 306.78125 310.785156 304.730469 312.738281 302.632812 314.640625 C 300.535156 316.539062 298.394531 318.390625 296.203125 320.1875 C 294.015625 321.980469 291.785156 323.722656 289.507812 325.410156 C 287.234375 327.097656 284.921875 328.726562 282.566406 330.300781 C 280.210938 331.871094 277.820312 333.386719 275.394531 334.84375 C 272.964844 336.296875 270.5 337.691406 268.003906 339.027344 C 265.507812 340.363281 262.980469 341.636719 260.417969 342.847656 C 257.859375 344.054688 255.273438 345.203125 252.65625 346.285156 C 250.039062 347.371094 247.398438 348.390625 244.734375 349.34375 C 242.066406 350.296875 239.378906 351.183594 236.671875 352.007812 C 233.960938 352.828125 231.234375 353.582031 228.488281 354.273438 C 225.738281 354.960938 222.976562 355.578125 220.203125 356.132812 C 217.425781 356.683594 214.636719 357.167969 211.835938 357.582031 C 209.035156 358 206.226562 358.347656 203.40625 358.625 C 200.589844 358.902344 197.765625 359.109375 194.9375 359.246094 C 192.109375 359.386719 189.28125 359.457031 186.449219 359.457031 C 183.617188 359.457031 180.789062 359.386719 177.960938 359.246094 C 175.132812 359.109375 172.308594 358.902344 169.492188 358.625 C 166.675781 358.347656 163.863281 358 161.0625 357.582031 C 158.261719 357.167969 155.472656 356.683594 152.699219 356.132812 C 149.921875 355.578125 147.160156 354.960938 144.414062 354.273438 C 141.664062 353.582031 138.9375 352.828125 136.226562 352.007812 C 133.519531 351.183594 130.832031 350.296875 128.164062 349.34375 C 125.5 348.390625 122.859375 347.371094 120.242188 346.285156 C 117.625 345.203125 115.039062 344.054688 112.480469 342.847656 C 109.917969 341.636719 107.390625 340.363281 104.894531 339.027344 C 102.398438 337.691406 99.933594 336.296875 97.507812 334.84375 C 95.078125 333.386719 92.6875 331.871094 90.332031 330.300781 C 87.976562 328.726562 85.664062 327.097656 83.390625 325.410156 C 81.113281 323.722656 78.882812 321.980469 76.695312 320.1875 C 74.507812 318.390625 72.363281 316.539062 70.265625 314.640625 C 68.167969 312.738281 66.117188 310.785156 64.113281 308.785156 C 62.113281 306.78125 60.160156 304.730469 58.261719 302.632812 C 56.359375 300.535156 54.507812 298.394531 52.714844 296.203125 C 50.917969 294.015625 49.175781 291.785156 47.488281 289.507812 C 45.800781 287.234375 44.171875 284.921875 42.597656 282.566406 C 41.027344 280.210938 39.511719 277.820312 38.054688 275.394531 C 36.601562 272.964844 35.207031 270.5 33.871094 268.003906 C 32.535156 265.507812 31.261719 262.980469 30.054688 260.417969 C 28.84375 257.859375 27.695312 255.273438 26.613281 252.65625 C 25.527344 250.039062 24.507812 247.398438 23.554688 244.734375 C 22.601562 242.066406 21.714844 239.378906 20.890625 236.671875 C 20.070312 233.960938 19.316406 231.234375 18.628906 228.488281 C 17.9375 225.738281 17.320312 222.976562 16.765625 220.203125 C 16.214844 217.425781 15.730469 214.636719 15.316406 211.835938 C 14.898438 209.035156 14.554688 206.226562 14.277344 203.40625 C 14 200.589844 13.789062 197.765625 13.652344 194.9375 C 13.511719 192.109375 13.441406 189.28125 13.441406 186.449219 C 13.441406 183.617188 13.511719 180.789062 13.652344 177.960938 C 13.789062 175.132812 14 172.308594 14.277344 169.492188 C 14.554688 166.675781 14.898438 163.863281 15.316406 161.0625 C 15.730469 158.261719 16.214844 155.472656 16.765625 152.699219 C 17.320312 149.921875 17.9375 147.160156 18.628906 144.414062 C 19.316406 141.664062 20.070312 138.9375 20.890625 136.226562 C 21.714844 133.519531 22.601562 130.832031 23.554688 128.164062 C 24.507812 125.5 25.527344 122.859375 26.613281 120.242188 C 27.695312 117.625 28.84375 115.039062 30.054688 112.480469 C 31.261719 109.917969 32.535156 107.390625 33.871094 104.894531 C 35.207031 102.398438 36.601562 99.933594 38.054688 97.507812 C 39.511719 95.078125 41.027344 92.6875 42.597656 90.332031 C 44.171875 87.976562 45.800781 85.664062 47.488281 83.390625 C 49.175781 81.113281 50.917969 78.882812 52.714844 76.695312 C 54.507812 74.507812 56.359375 72.363281 58.261719 70.265625 C 60.160156 68.167969 62.113281 66.117188 64.113281 64.113281 C 66.117188 62.113281 68.167969 60.160156 70.265625 58.261719 C 72.363281 56.359375 74.507812 54.507812 76.695312 52.714844 C 78.882812 50.917969 81.113281 49.175781 83.390625 47.488281 C 85.664062 45.800781 87.976562 44.171875 90.332031 42.597656 C 92.6875 41.027344 95.078125 39.511719 97.507812 38.054688 C 99.933594 36.601562 102.398438 35.207031 104.894531 33.871094 C 107.390625 32.535156 109.917969 31.261719 112.480469 30.054688 C 115.039062 28.84375 117.625 27.695312 120.242188 26.613281 C 122.859375 25.527344 125.5 24.507812 128.164062 23.554688 C 130.832031 22.601562 133.519531 21.714844 136.226562 20.890625 C 138.9375 20.070312 141.664062 19.316406 144.414062 18.628906 C 147.160156 17.9375 149.921875 17.320312 152.699219 16.765625 C 155.472656 16.214844 158.261719 15.730469 161.0625 15.316406 C 163.863281 14.898438 166.675781 14.554688 169.492188 14.277344 C 172.308594 14 175.132812 13.789062 177.960938 13.652344 C 180.789062 13.511719 183.617188 13.441406 186.449219 13.441406 C 189.28125 13.441406 192.109375 13.511719 194.9375 13.652344 C 197.765625 13.789062 200.589844 14 203.40625 14.277344 C 206.226562 14.554688 209.035156 14.898438 211.835938 15.316406 C 214.636719 15.730469 217.425781 16.214844 220.203125 16.765625 C 222.976562 17.320312 225.738281 17.9375 228.488281 18.628906 C 231.234375 19.316406 233.960938 20.070312 236.671875 20.890625 C 239.378906 21.714844 242.066406 22.601562 244.734375 23.554688 C 247.398438 24.507812 250.039062 25.527344 252.65625 26.613281 C 255.273438 27.695312 257.859375 28.84375 260.417969 30.054688 C 262.980469 31.261719 265.507812 32.535156 268.003906 33.871094 C 270.5 35.207031 272.964844 36.601562 275.394531 38.054688 C 277.820312 39.511719 280.210938 41.027344 282.566406 42.597656 C 284.921875 44.171875 287.234375 45.800781 289.507812 47.488281 C 291.785156 49.175781 294.015625 50.917969 296.203125 52.714844 C 298.390625 54.507812 300.535156 56.359375 302.632812 58.261719 C 304.730469 60.160156 306.78125 62.113281 308.785156 64.113281 C 310.785156 66.117188 312.738281 68.167969 314.640625 70.265625 C 316.539062 72.363281 318.390625 74.507812 320.1875 76.695312 C 321.980469 78.882812 323.722656 81.113281 325.410156 83.390625 C 327.097656 85.664062 328.726562 87.976562 330.300781 90.332031 C 331.871094 92.6875 333.386719 95.078125 334.84375 97.507812 C 336.296875 99.933594 337.691406 102.398438 339.027344 104.894531 C 340.363281 107.390625 341.636719 109.917969 342.847656 112.480469 C 344.054688 115.039062 345.203125 117.625 346.285156 120.242188 C 347.371094 122.859375 348.390625 125.5 349.34375 128.164062 C 350.296875 130.832031 351.183594 133.519531 352.007812 136.226562 C 352.828125 138.9375 353.582031 141.664062 354.273438 144.414062 C 354.960938 147.160156 355.578125 149.921875 356.132812 152.699219 C 356.683594 155.472656 357.167969 158.261719 357.582031 161.0625 C 358 163.863281 358.347656 166.675781 358.625 169.492188 C 358.902344 172.308594 359.109375 175.132812 359.246094 177.960938 C 359.386719 180.789062 359.457031 183.617188 359.457031 186.449219 Z M 359.457031 186.449219 "/></clipPath><linearGradient x1="62.833" gradientTransform="matrix(2.753441,0,0,2.753441,13.442516,13.44251)" y1="0.000000639162" x2="62.833" gradientUnits="userSpaceOnUse" y2="125.665998" id="b04a2cb854"><stop style="stop-color:#00bf63;stop-opacity:1;" offset="0"/><stop style="stop-color:#01bf63;stop-opacity:1;" offset="0.00390625"/><stop style="stop-color:#02bf64;stop-opacity:1;" offset="0.0078125"/><stop style="stop-color:#03bf65;stop-opacity:1;" offset="0.0117188"/><stop style="stop-color:#04c065;stop-opacity:1;" offset="0.015625"/><stop style="stop-color:#04c066;stop-opacity:1;" offset="0.0195312"/><stop style="stop-color:#05c066;stop-opacity:1;" offset="0.0234375"/><stop style="stop-color:#06c067;stop-opacity:1;" offset="0.0273438"/><stop style="stop-color:#07c067;stop-opacity:1;" offset="0.03125"/><stop style="stop-color:#08c068;stop-opacity:1;" offset="0.0351563"/><stop style="stop-color:#09c068;stop-opacity:1;" offset="0.0390625"/><stop style="stop-color:#0ac169;stop-opacity:1;" offset="0.0429688"/><stop style="stop-color:#0bc169;stop-opacity:1;" offset="0.046875"/><stop style="stop-color:#0bc16a;stop-opacity:1;" offset="0.0507812"/><stop style="stop-color:#0cc16a;stop-opacity:1;" offset="0.0546875"/><stop style="stop-color:#0dc16b;stop-opacity:1;" offset="0.0585938"/><stop style="stop-color:#0ec16c;stop-opacity:1;" offset="0.0625"/><stop style="stop-color:#0fc26c;stop-opacity:1;" offset="0.0664062"/><stop style="stop-color:#10c26d;stop-opacity:1;" offset="0.0703125"/><stop style="stop-color:#11c26d;stop-opacity:1;" offset="0.0742187"/><stop style="stop-color:#12c26e;stop-opacity:1;" offset="0.078125"/><stop style="stop-color:#13c26e;stop-opacity:1;" offset="0.0820312"/><stop style="stop-color:#13c26f;stop-opacity:1;" offset="0.0859375"/><stop style="stop-color:#14c26f;stop-opacity:1;" offset="0.0898438"/><stop style="stop-color:#15c370;stop-opacity:1;" offset="0.09375"/><stop style="stop-color:#16c370;stop-opacity:1;" offset="0.0976562"/><stop style="stop-color:#17c371;stop-opacity:1;" offset="0.101562"/><stop style="stop-color:#18c371;stop-opacity:1;" offset="0.105469"/><stop style="stop-color:#19c372;stop-opacity:1;" offset="0.109375"/><stop style="stop-color:#1ac373;stop-opacity:1;" offset="0.113281"/><stop style="stop-color:#1ac373;stop-opacity:1;" offset="0.117188"/><stop style="stop-color:#1bc474;stop-opacity:1;" offset="0.121094"/><stop style="stop-color:#1cc474;stop-opacity:1;" offset="0.125"/><stop style="stop-color:#1dc475;stop-opacity:1;" offset="0.128906"/><stop style="stop-color:#1ec475;stop-opacity:1;" offset="0.132812"/><stop style="stop-color:#1fc476;stop-opacity:1;" offset="0.136719"/><stop style="stop-color:#20c476;stop-opacity:1;" offset="0.140625"/><stop style="stop-color:#21c477;stop-opacity:1;" offset="0.144531"/><stop style="stop-color:#22c577;stop-opacity:1;" offset="0.148438"/><stop style="stop-color:#22c578;stop-opacity:1;" offset="0.152344"/><stop style="stop-color:#23c578;stop-opacity:1;" offset="0.15625"/><stop style="stop-color:#24c579;stop-opacity:1;" offset="0.160156"/><stop style="stop-color:#25c57a;stop-opacity:1;" offset="0.164063"/><stop style="stop-color:#26c57a;stop-opacity:1;" offset="0.167969"/><stop style="stop-color:#27c67b;stop-opacity:1;" offset="0.171875"/><stop style="stop-color:#28c67b;stop-opacity:1;" offset="0.175781"/><stop style="stop-color:#29c67c;stop-opacity:1;" offset="0.179688"/><stop style="stop-color:#29c67c;stop-opacity:1;" offset="0.183594"/><stop style="stop-color:#2ac67d;stop-opacity:1;" offset="0.1875"/><stop style="stop-color:#2bc67d;stop-opacity:1;" offset="0.191406"/><stop style="stop-color:#2cc67e;stop-opacity:1;" offset="0.195313"/><stop style="stop-color:#2dc77e;stop-opacity:1;" offset="0.199219"/><stop style="stop-color:#2ec77f;stop-opacity:1;" offset="0.203125"/><stop style="stop-color:#2fc77f;stop-opacity:1;" offset="0.207031"/><stop style="stop-color:#30c780;stop-opacity:1;" offset="0.210938"/><stop style="stop-color:#31c781;stop-opacity:1;" offset="0.214844"/><stop style="stop-color:#31c781;stop-opacity:1;" offset="0.21875"/><stop style="stop-color:#32c782;stop-opacity:1;" offset="0.222656"/><stop style="stop-color:#33c882;stop-opacity:1;" offset="0.226563"/><stop style="stop-color:#34c883;stop-opacity:1;" offset="0.230469"/><stop style="stop-color:#35c883;stop-opacity:1;" offset="0.234375"/><stop style="stop-color:#36c884;stop-opacity:1;" offset="0.238281"/><stop style="stop-color:#37c884;stop-opacity:1;" offset="0.242188"/><stop style="stop-color:#38c885;stop-opacity:1;" offset="0.246094"/><stop style="stop-color:#38c885;stop-opacity:1;" offset="0.25"/><stop style="stop-color:#39c986;stop-opacity:1;" offset="0.253906"/><stop style="stop-color:#3ac987;stop-opacity:1;" offset="0.257813"/><stop style="stop-color:#3bc987;stop-opacity:1;" offset="0.261719"/><stop style="stop-color:#3cc988;stop-opacity:1;" offset="0.265625"/><stop style="stop-color:#3dc988;stop-opacity:1;" offset="0.269531"/><stop style="stop-color:#3ec989;stop-opacity:1;" offset="0.273438"/><stop style="stop-color:#3fca89;stop-opacity:1;" offset="0.277344"/><stop style="stop-color:#40ca8a;stop-opacity:1;" offset="0.28125"/><stop style="stop-color:#40ca8a;stop-opacity:1;" offset="0.285156"/><stop style="stop-color:#41ca8b;stop-opacity:1;" offset="0.289063"/><stop style="stop-color:#42ca8b;stop-opacity:1;" offset="0.292969"/><stop style="stop-color:#43ca8c;stop-opacity:1;" offset="0.296875"/><stop style="stop-color:#44ca8c;stop-opacity:1;" offset="0.300781"/><stop style="stop-color:#45cb8d;stop-opacity:1;" offset="0.304688"/><stop style="stop-color:#46cb8e;stop-opacity:1;" offset="0.308594"/><stop style="stop-color:#47cb8e;stop-opacity:1;" offset="0.3125"/><stop style="stop-color:#47cb8f;stop-opacity:1;" offset="0.316406"/><stop style="stop-color:#48cb8f;stop-opacity:1;" offset="0.320313"/><stop style="stop-color:#49cb90;stop-opacity:1;" offset="0.324219"/><stop style="stop-color:#4acb90;stop-opacity:1;" offset="0.328125"/><stop style="stop-color:#4bcc91;stop-opacity:1;" offset="0.332031"/><stop style="stop-color:#4ccc91;stop-opacity:1;" offset="0.335938"/><stop style="stop-color:#4dcc92;stop-opacity:1;" offset="0.339844"/><stop style="stop-color:#4ecc92;stop-opacity:1;" offset="0.34375"/><stop style="stop-color:#4fcc93;stop-opacity:1;" offset="0.347656"/><stop style="stop-color:#4fcc93;stop-opacity:1;" offset="0.351563"/><stop style="stop-color:#50cc94;stop-opacity:1;" offset="0.355469"/><stop style="stop-color:#51cd95;stop-opacity:1;" offset="0.359375"/><stop style="stop-color:#52cd95;stop-opacity:1;" offset="0.363281"/><stop style="stop-color:#53cd96;stop-opacity:1;" offset="0.367188"/><stop style="stop-color:#54cd96;stop-opacity:1;" offset="0.371094"/><stop style="stop-color:#55cd97;stop-opacity:1;" offset="0.375"/><stop style="stop-color:#56cd97;stop-opacity:1;" offset="0.378906"/><stop style="stop-color:#56ce98;stop-opacity:1;" offset="0.382812"/><stop style="stop-color:#57ce98;stop-opacity:1;" offset="0.386719"/><stop style="stop-color:#58ce99;stop-opacity:1;" offset="0.390625"/><stop style="stop-color:#59ce99;stop-opacity:1;" offset="0.394531"/><stop style="stop-color:#5ace9a;stop-opacity:1;" offset="0.398438"/><stop style="stop-color:#5bce9a;stop-opacity:1;" offset="0.402344"/><stop style="stop-color:#5cce9b;stop-opacity:1;" offset="0.40625"/><stop style="stop-color:#5dcf9c;stop-opacity:1;" offset="0.410156"/><stop style="stop-color:#5ecf9c;stop-opacity:1;" offset="0.414062"/><stop style="stop-color:#5ecf9d;stop-opacity:1;" offset="0.417969"/><stop style="stop-color:#5fcf9d;stop-opacity:1;" offset="0.421875"/><stop style="stop-color:#60cf9e;stop-opacity:1;" offset="0.425781"/><stop style="stop-color:#61cf9e;stop-opacity:1;" offset="0.429688"/><stop style="stop-color:#62cf9f;stop-opacity:1;" offset="0.433594"/><stop style="stop-color:#63d09f;stop-opacity:1;" offset="0.4375"/><stop style="stop-color:#64d0a0;stop-opacity:1;" offset="0.441406"/><stop style="stop-color:#65d0a0;stop-opacity:1;" offset="0.445313"/><stop style="stop-color:#65d0a1;stop-opacity:1;" offset="0.449219"/><stop style="stop-color:#66d0a1;stop-opacity:1;" offset="0.453125"/><stop style="stop-color:#67d0a2;stop-opacity:1;" offset="0.457031"/><stop style="stop-color:#68d1a3;stop-opacity:1;" offset="0.460938"/><stop style="stop-color:#69d1a3;stop-opacity:1;" offset="0.464844"/><stop style="stop-color:#6ad1a4;stop-opacity:1;" offset="0.46875"/><stop style="stop-color:#6bd1a4;stop-opacity:1;" offset="0.472656"/><stop style="stop-color:#6cd1a5;stop-opacity:1;" offset="0.476563"/><stop style="stop-color:#6dd1a5;stop-opacity:1;" offset="0.480469"/><stop style="stop-color:#6dd1a6;stop-opacity:1;" offset="0.484375"/><stop style="stop-color:#6ed2a6;stop-opacity:1;" offset="0.488281"/><stop style="stop-color:#6fd2a7;stop-opacity:1;" offset="0.492188"/><stop style="stop-color:#70d2a7;stop-opacity:1;" offset="0.496094"/><stop style="stop-color:#71d2a8;stop-opacity:1;" offset="0.5"/><stop style="stop-color:#72d2a8;stop-opacity:1;" offset="0.503906"/><stop style="stop-color:#73d2a9;stop-opacity:1;" offset="0.507812"/><stop style="stop-color:#74d2aa;stop-opacity:1;" offset="0.511719"/><stop style="stop-color:#74d3aa;stop-opacity:1;" offset="0.515625"/><stop style="stop-color:#75d3ab;stop-opacity:1;" offset="0.519531"/><stop style="stop-color:#76d3ab;stop-opacity:1;" offset="0.523438"/><stop style="stop-color:#77d3ac;stop-opacity:1;" offset="0.527344"/><stop style="stop-color:#78d3ac;stop-opacity:1;" offset="0.53125"/><stop style="stop-color:#79d3ad;stop-opacity:1;" offset="0.535156"/><stop style="stop-color:#7ad3ad;stop-opacity:1;" offset="0.539062"/><stop style="stop-color:#7bd4ae;stop-opacity:1;" offset="0.542969"/><stop style="stop-color:#7cd4ae;stop-opacity:1;" offset="0.546875"/><stop style="stop-color:#7cd4af;stop-opacity:1;" offset="0.550781"/><stop style="stop-color:#7dd4af;stop-opacity:1;" offset="0.554688"/><stop style="stop-color:#7ed4b0;stop-opacity:1;" offset="0.558594"/><stop style="stop-color:#7fd4b1;stop-opacity:1;" offset="0.5625"/><stop style="stop-color:#80d5b1;stop-opacity:1;" offset="0.566406"/><stop style="stop-color:#81d5b2;stop-opacity:1;" offset="0.570312"/><stop style="stop-color:#82d5b2;stop-opacity:1;" offset="0.574219"/><stop style="stop-color:#83d5b3;stop-opacity:1;" offset="0.578125"/><stop style="stop-color:#83d5b3;stop-opacity:1;" offset="0.582031"/><stop style="stop-color:#84d5b4;stop-opacity:1;" offset="0.585938"/><stop style="stop-color:#85d5b4;stop-opacity:1;" offset="0.589844"/><stop style="stop-color:#86d6b5;stop-opacity:1;" offset="0.59375"/><stop style="stop-color:#87d6b5;stop-opacity:1;" offset="0.597656"/><stop style="stop-color:#88d6b6;stop-opacity:1;" offset="0.601562"/><stop style="stop-color:#89d6b6;stop-opacity:1;" offset="0.605469"/><stop style="stop-color:#8ad6b7;stop-opacity:1;" offset="0.609375"/><stop style="stop-color:#8bd6b8;stop-opacity:1;" offset="0.613281"/><stop style="stop-color:#8bd6b8;stop-opacity:1;" offset="0.617188"/><stop style="stop-color:#8cd7b9;stop-opacity:1;" offset="0.621094"/><stop style="stop-color:#8dd7b9;stop-opacity:1;" offset="0.625"/><stop style="stop-color:#8ed7ba;stop-opacity:1;" offset="0.628906"/><stop style="stop-color:#8fd7ba;stop-opacity:1;" offset="0.632813"/><stop style="stop-color:#90d7bb;stop-opacity:1;" offset="0.636719"/><stop style="stop-color:#91d7bb;stop-opacity:1;" offset="0.640625"/><stop style="stop-color:#92d7bc;stop-opacity:1;" offset="0.644531"/><stop style="stop-color:#92d8bc;stop-opacity:1;" offset="0.648438"/><stop style="stop-color:#93d8bd;stop-opacity:1;" offset="0.652344"/><stop style="stop-color:#94d8bd;stop-opacity:1;" offset="0.65625"/><stop style="stop-color:#95d8be;stop-opacity:1;" offset="0.660156"/><stop style="stop-color:#96d8bf;stop-opacity:1;" offset="0.664063"/><stop style="stop-color:#97d8bf;stop-opacity:1;" offset="0.667969"/><stop style="stop-color:#98d9c0;stop-opacity:1;" offset="0.671875"/><stop style="stop-color:#99d9c0;stop-opacity:1;" offset="0.675781"/><stop style="stop-color:#9ad9c1;stop-opacity:1;" offset="0.679688"/><stop style="stop-color:#9ad9c1;stop-opacity:1;" offset="0.683594"/><stop style="stop-color:#9bd9c2;stop-opacity:1;" offset="0.6875"/><stop style="stop-color:#9cd9c2;stop-opacity:1;" offset="0.691406"/><stop style="stop-color:#9dd9c3;stop-opacity:1;" offset="0.695313"/><stop style="stop-color:#9edac3;stop-opacity:1;" offset="0.699219"/><stop style="stop-color:#9fdac4;stop-opacity:1;" offset="0.703125"/><stop style="stop-color:#a0dac4;stop-opacity:1;" offset="0.707031"/><stop style="stop-color:#a1dac5;stop-opacity:1;" offset="0.710938"/><stop style="stop-color:#a2dac6;stop-opacity:1;" offset="0.714844"/><stop style="stop-color:#a2dac6;stop-opacity:1;" offset="0.71875"/><stop style="stop-color:#a3dac7;stop-opacity:1;" offset="0.722656"/><stop style="stop-color:#a4dbc7;stop-opacity:1;" offset="0.726563"/><stop style="stop-color:#a5dbc8;stop-opacity:1;" offset="0.730469"/><stop style="stop-color:#a6dbc8;stop-opacity:1;" offset="0.734375"/><stop style="stop-color:#a7dbc9;stop-opacity:1;" offset="0.738281"/><stop style="stop-color:#a8dbc9;stop-opacity:1;" offset="0.742188"/><stop style="stop-color:#a9dbca;stop-opacity:1;" offset="0.746094"/><stop style="stop-color:#a9dbca;stop-opacity:1;" offset="0.75"/><stop style="stop-color:#aadccb;stop-opacity:1;" offset="0.753906"/><stop style="stop-color:#abdccb;stop-opacity:1;" offset="0.757812"/><stop style="stop-color:#acdccc;stop-opacity:1;" offset="0.761719"/><stop style="stop-color:#addccd;stop-opacity:1;" offset="0.765625"/><stop style="stop-color:#aedccd;stop-opacity:1;" offset="0.769531"/><stop style="stop-color:#afdcce;stop-opacity:1;" offset="0.773437"/><stop style="stop-color:#b0ddce;stop-opacity:1;" offset="0.777344"/><stop style="stop-color:#b1ddcf;stop-opacity:1;" offset="0.78125"/><stop style="stop-color:#b1ddcf;stop-opacity:1;" offset="0.785156"/><stop style="stop-color:#b2ddd0;stop-opacity:1;" offset="0.789062"/><stop style="stop-color:#b3ddd0;stop-opacity:1;" offset="0.792969"/><stop style="stop-color:#b4ddd1;stop-opacity:1;" offset="0.796875"/><stop style="stop-color:#b5ddd1;stop-opacity:1;" offset="0.800781"/><stop style="stop-color:#b6ded2;stop-opacity:1;" offset="0.804687"/><stop style="stop-color:#b7ded2;stop-opacity:1;" offset="0.808594"/><stop style="stop-color:#b8ded3;stop-opacity:1;" offset="0.8125"/><stop style="stop-color:#b8ded4;stop-opacity:1;" offset="0.816406"/><stop style="stop-color:#b9ded4;stop-opacity:1;" offset="0.820312"/><stop style="stop-color:#baded5;stop-opacity:1;" offset="0.824219"/><stop style="stop-color:#bbded5;stop-opacity:1;" offset="0.828125"/><stop style="stop-color:#bcdfd6;stop-opacity:1;" offset="0.832031"/><stop style="stop-color:#bddfd6;stop-opacity:1;" offset="0.835937"/><stop style="stop-color:#bedfd7;stop-opacity:1;" offset="0.839844"/><stop style="stop-color:#bfdfd7;stop-opacity:1;" offset="0.84375"/><stop style="stop-color:#c0dfd8;stop-opacity:1;" offset="0.847656"/><stop style="stop-color:#c0dfd8;stop-opacity:1;" offset="0.851562"/><stop style="stop-color:#c1dfd9;stop-opacity:1;" offset="0.855469"/><stop style="stop-color:#c2e0d9;stop-opacity:1;" offset="0.859375"/><stop style="stop-color:#c3e0da;stop-opacity:1;" offset="0.863281"/><stop style="stop-color:#c4e0db;stop-opacity:1;" offset="0.867187"/><stop style="stop-color:#c5e0db;stop-opacity:1;" offset="0.871094"/><stop style="stop-color:#c6e0dc;stop-opacity:1;" offset="0.875"/><stop style="stop-color:#c7e0dc;stop-opacity:1;" offset="0.878906"/><stop style="stop-color:#c7e1dd;stop-opacity:1;" offset="0.882812"/><stop style="stop-color:#c8e1dd;stop-opacity:1;" offset="0.886719"/><stop style="stop-color:#c9e1de;stop-opacity:1;" offset="0.890625"/><stop style="stop-color:#cae1de;stop-opacity:1;" offset="0.894531"/><stop style="stop-color:#cbe1df;stop-opacity:1;" offset="0.898438"/><stop style="stop-color:#cce1df;stop-opacity:1;" offset="0.902344"/><stop style="stop-color:#cde1e0;stop-opacity:1;" offset="0.90625"/><stop style="stop-color:#cee2e0;stop-opacity:1;" offset="0.910156"/><stop style="stop-color:#cfe2e1;stop-opacity:1;" offset="0.914062"/><stop style="stop-color:#cfe2e2;stop-opacity:1;" offset="0.917969"/><stop style="stop-color:#d0e2e2;stop-opacity:1;" offset="0.921875"/><stop style="stop-color:#d1e2e3;stop-opacity:1;" offset="0.925781"/><stop style="stop-color:#d2e2e3;stop-opacity:1;" offset="0.929688"/><stop style="stop-color:#d3e2e4;stop-opacity:1;" offset="0.933594"/><stop style="stop-color:#d4e3e4;stop-opacity:1;" offset="0.9375"/><stop style="stop-color:#d5e3e5;stop-opacity:1;" offset="0.941406"/><stop style="stop-color:#d6e3e5;stop-opacity:1;" offset="0.945312"/><stop style="stop-color:#d6e3e6;stop-opacity:1;" offset="0.949219"/><stop style="stop-color:#d7e3e6;stop-opacity:1;" offset="0.953125"/><stop style="stop-color:#d8e3e7;stop-opacity:1;" offset="0.957031"/><stop style="stop-color:#d9e4e8;stop-opacity:1;" offset="0.960938"/><stop style="stop-color:#dae4e8;stop-opacity:1;" offset="0.964844"/><stop style="stop-color:#dbe4e9;stop-opacity:1;" offset="0.96875"/><stop style="stop-color:#dce4e9;stop-opacity:1;" offset="0.972656"/><stop style="stop-color:#dde4ea;stop-opacity:1;" offset="0.976562"/><stop style="stop-color:#dee4ea;stop-opacity:1;" offset="0.980469"/><stop style="stop-color:#dee4eb;stop-opacity:1;" offset="0.984375"/><stop style="stop-color:#dfe5eb;stop-opacity:1;" offset="0.988281"/><stop style="stop-color:#e0e5ec;stop-opacity:1;" offset="0.992188"/><stop style="stop-color:#e1e5ec;stop-opacity:1;" offset="0.996094"/><stop style="stop-color:#e2e5ed;stop-opacity:1;" offset="1"/></linearGradient></defs><g id="0b5a8180be"><g clip-rule="nonzero" clip-path="url(#e76581dd30)"><g clip-rule="nonzero" clip-path="url(#d061a80f9e)"><path style=" stroke:none;fill-rule:nonzero;fill:url(#b04a2cb854);" d="M 13.441406 13.441406 L 13.441406 359.457031 L 359.457031 359.457031 L 359.457031 13.441406 Z M 13.441406 13.441406 "/></g></g><path style=" stroke:none;fill-rule:nonzero;fill:#f7dece;fill-opacity:1;" d="M 143.535156 146.25 L 145.019531 146.121094 C 145.582031 146.058594 146.089844 145.855469 146.515625 145.558594 L 146.503906 145.570312 C 147.921875 150.464844 149.660156 155.617188 151.835938 161.011719 C 154.621094 168.070312 157.367188 173.867188 160.4375 179.460938 L 160.015625 178.613281 C 159.761719 182.472656 159.453125 186.433594 159.050781 190.269531 C 158.859375 192.632812 158.394531 194.839844 157.683594 196.914062 L 157.738281 196.722656 C 157.609375 196.777344 157.429688 218.765625 157.429688 218.765625 C 157.441406 233.105469 167.371094 245.113281 180.722656 248.304688 L 180.933594 248.34375 C 181.539062 246.808594 183 245.738281 184.71875 245.738281 L 190.800781 245.738281 C 192.507812 245.757812 193.96875 246.820312 194.574219 248.3125 L 194.585938 248.34375 C 208.179688 245.144531 218.152344 233.136719 218.207031 218.789062 C 218.207031 218.789062 217.835938 196.882812 217.644531 196.734375 C 217.0625 194.878906 216.597656 192.699219 216.351562 190.449219 L 216.339844 190.292969 C 215.96875 186.433594 215.726562 182.566406 215.378906 178.632812 C 217.996094 173.90625 220.738281 168.121094 223.15625 162.15625 L 223.558594 161.03125 C 225.730469 155.636719 227.414062 150.5 228.890625 145.589844 C 229.300781 145.886719 229.8125 146.089844 230.363281 146.152344 L 230.371094 146.152344 L 231.867188 146.28125 C 233.667969 146.472656 235.257812 144.988281 235.40625 142.6875 L 237.015625 122.222656 C 237.015625 122.214844 237.015625 122.203125 237.015625 122.203125 C 237.015625 120.476562 235.722656 119.054688 234.0625 118.84375 L 233.859375 118.84375 C 234.273438 115.867188 234.503906 112.433594 234.503906 108.945312 C 234.503906 101.335938 233.382812 93.980469 231.292969 87.0625 L 231.433594 87.601562 C 225.316406 74.183594 213.195312 64.445312 198.589844 61.722656 L 198.316406 61.679688 C 195.179688 61.035156 191.523438 60.597656 187.792969 60.492188 L 187.570312 60.492188 C 183.765625 60.566406 180.109375 60.992188 176.570312 61.742188 L 176.949219 61.679688 C 162.09375 64.476562 149.988281 74.214844 143.949219 87.316406 L 143.832031 87.601562 C 141.863281 93.960938 140.726562 101.273438 140.726562 108.839844 C 140.726562 112.367188 140.972656 115.84375 141.449219 119.234375 L 141.40625 118.84375 C 139.722656 119.035156 138.417969 120.445312 138.417969 122.160156 L 138.417969 122.234375 L 140.027344 142.699219 C 140.175781 145.050781 141.789062 146.472656 143.527344 146.28125 Z M 143.535156 146.25 "/><path style=" stroke:none;fill-rule:nonzero;fill:#a6a6a6;fill-opacity:1;" d="M 301.304688 281.6875 C 300.566406 249.472656 297.34375 242.179688 295.605469 237.242188 C 294.914062 235.261719 294.355469 221.863281 272.226562 213.175781 C 258.664062 207.832031 241.15625 207.726562 226.339844 201.464844 L 226.339844 218.886719 C 226.308594 237.625 212.890625 253.210938 195.140625 256.613281 L 194.898438 256.65625 C 194.566406 258.585938 192.914062 260.027344 190.933594 260.046875 L 190.742188 260.046875 L 190.742188 273.1875 C 190.742188 286.03125 201.148438 296.4375 213.992188 296.4375 C 226.835938 296.4375 237.246094 286.03125 237.246094 273.1875 L 237.246094 264.011719 C 230.800781 263.046875 225.914062 257.558594 225.914062 250.921875 C 225.914062 243.621094 231.839844 237.699219 239.140625 237.699219 C 246.445312 237.699219 252.367188 243.621094 252.367188 250.921875 C 252.367188 256.710938 248.648438 261.625 243.476562 263.429688 L 243.378906 263.460938 L 243.378906 273.6875 C 243.378906 289.921875 230.21875 303.085938 213.984375 303.085938 C 197.746094 303.085938 184.585938 289.921875 184.585938 273.6875 C 184.585938 273.507812 184.585938 273.335938 184.585938 273.15625 L 184.585938 273.179688 L 184.585938 259.921875 C 182.699219 259.792969 181.171875 258.375 180.875 256.550781 L 180.875 256.527344 C 162.964844 253.042969 149.613281 237.507812 149.570312 218.84375 L 149.570312 201.285156 C 134.691406 207.675781 117.078125 207.800781 103.441406 213.152344 C 81.25 221.832031 80.738281 235.195312 80.0625 237.210938 C 78.367188 242.167969 75.101562 249.429688 74.359375 281.667969 C 74.234375 285.90625 74.359375 292.402344 87.140625 298.082031 C 114.96875 308.996094 150.820312 312.390625 186.164062 314.824219 L 189.554688 314.824219 C 224.972656 312.410156 260.769531 309.03125 288.578125 298.082031 C 301.304688 292.433594 301.421875 285.96875 301.304688 281.6875 Z M 145.722656 268.546875 L 132.519531 268.546875 L 132.519531 281.804688 L 123.085938 281.804688 L 123.085938 268.589844 L 109.882812 268.589844 L 109.882812 259.15625 L 123.085938 259.15625 L 123.085938 245.953125 L 132.519531 245.953125 L 132.519531 259.15625 L 145.722656 259.15625 Z M 145.722656 268.546875 "/><path style=" stroke:none;fill-rule:nonzero;fill:#545454;fill-opacity:1;" d="M 246.292969 250.808594 C 246.292969 246.867188 243.105469 243.667969 239.160156 243.667969 C 235.21875 243.667969 232.027344 246.855469 232.027344 250.800781 C 232.027344 254.742188 235.21875 257.929688 239.160156 257.929688 C 243.09375 257.929688 246.28125 254.742188 246.292969 250.808594 Z M 246.292969 250.808594 "/></g></svg>