<svg xmlns="http://www.w3.org/2000/svg" xmlns:xlink="http://www.w3.org/1999/xlink" width="500" zoomAndPan="magnify" viewBox="0 0 375 374.999991" height="500" preserveAspectRatio="xMidYMid meet" version="1.2"><defs><clipPath id="032667de2b"><path d="M 7.582031 10.527344 L 367.582031 10.527344 L 367.582031 364.527344 L 7.582031 364.527344 Z M 7.582031 10.527344 "/></clipPath></defs><g id="596a672f92"><g clip-rule="nonzero" clip-path="url(#032667de2b)"><path style=" stroke:none;fill-rule:nonzero;fill:#f6f8ff;fill-opacity:1;" d="M 62.257812 10.527344 L 312.742188 10.527344 C 314.523438 10.527344 316.304688 10.613281 318.078125 10.789062 C 319.851562 10.960938 321.613281 11.222656 323.363281 11.570312 C 325.113281 11.921875 326.839844 12.351562 328.546875 12.871094 C 330.253906 13.386719 331.929688 13.988281 333.578125 14.671875 C 335.226562 15.351562 336.835938 16.113281 338.410156 16.957031 C 339.980469 17.796875 341.511719 18.710938 342.992188 19.703125 C 344.476562 20.695312 345.90625 21.753906 347.285156 22.886719 C 348.664062 24.015625 349.984375 25.214844 351.246094 26.476562 C 352.503906 27.734375 353.703125 29.054688 354.832031 30.433594 C 355.964844 31.8125 357.023438 33.242188 358.015625 34.726562 C 359.007812 36.210938 359.921875 37.738281 360.761719 39.308594 C 361.605469 40.882812 362.367188 42.492188 363.046875 44.140625 C 363.730469 45.789062 364.332031 47.464844 364.847656 49.171875 C 365.367188 50.878906 365.800781 52.605469 366.148438 54.355469 C 366.496094 56.105469 366.757812 57.867188 366.929688 59.640625 C 367.105469 61.414062 367.191406 63.195312 367.191406 64.976562 L 367.191406 310.015625 C 367.191406 311.796875 367.105469 313.578125 366.929688 315.351562 C 366.757812 317.125 366.496094 318.890625 366.148438 320.636719 C 365.800781 322.386719 365.367188 324.113281 364.847656 325.820312 C 364.332031 327.527344 363.730469 329.207031 363.046875 330.851562 C 362.367188 332.5 361.605469 334.109375 360.761719 335.683594 C 359.921875 337.257812 359.007812 338.785156 358.015625 340.265625 C 357.023438 341.75 355.964844 343.179688 354.832031 344.558594 C 353.703125 345.9375 352.503906 347.257812 351.246094 348.519531 C 349.984375 349.78125 348.664062 350.976562 347.285156 352.105469 C 345.90625 353.238281 344.476562 354.300781 342.992188 355.289062 C 341.511719 356.28125 339.980469 357.195312 338.410156 358.039062 C 336.835938 358.878906 335.226562 359.640625 333.578125 360.324219 C 331.929688 361.003906 330.253906 361.605469 328.546875 362.121094 C 326.839844 362.640625 325.113281 363.074219 323.363281 363.421875 C 321.613281 363.769531 319.851562 364.03125 318.078125 364.203125 C 316.304688 364.378906 314.523438 364.46875 312.742188 364.46875 L 62.257812 364.46875 C 60.476562 364.46875 58.695312 364.378906 56.921875 364.203125 C 55.148438 364.03125 53.386719 363.769531 51.636719 363.421875 C 49.886719 363.074219 48.160156 362.640625 46.453125 362.121094 C 44.746094 361.605469 43.070312 361.003906 41.421875 360.324219 C 39.773438 359.640625 38.164062 358.878906 36.589844 358.039062 C 35.015625 357.195312 33.488281 356.28125 32.007812 355.289062 C 30.523438 354.300781 29.09375 353.238281 27.714844 352.105469 C 26.335938 350.976562 25.015625 349.78125 23.753906 348.519531 C 22.492188 347.257812 21.296875 345.9375 20.167969 344.558594 C 19.035156 343.179688 17.972656 341.75 16.984375 340.265625 C 15.992188 338.785156 15.078125 337.257812 14.234375 335.683594 C 13.394531 334.109375 12.632812 332.5 11.953125 330.851562 C 11.269531 329.207031 10.667969 327.527344 10.152344 325.820312 C 9.632812 324.113281 9.199219 322.386719 8.851562 320.636719 C 8.503906 318.890625 8.242188 317.125 8.070312 315.351562 C 7.894531 313.578125 7.804688 311.796875 7.804688 310.015625 L 7.804688 64.976562 C 7.804688 63.195312 7.894531 61.414062 8.070312 59.640625 C 8.242188 57.867188 8.503906 56.105469 8.851562 54.355469 C 9.199219 52.605469 9.632812 50.878906 10.152344 49.171875 C 10.667969 47.464844 11.269531 45.789062 11.953125 44.140625 C 12.632812 42.492188 13.394531 40.882812 14.234375 39.308594 C 15.078125 37.738281 15.992188 36.210938 16.984375 34.726562 C 17.972656 33.242188 19.035156 31.8125 20.167969 30.433594 C 21.296875 29.054688 22.492188 27.734375 23.753906 26.476562 C 25.015625 25.214844 26.335938 24.015625 27.714844 22.886719 C 29.09375 21.753906 30.523438 20.695312 32.007812 19.703125 C 33.488281 18.710938 35.015625 17.796875 36.589844 16.957031 C 38.164062 16.113281 39.773438 15.351562 41.421875 14.671875 C 43.070312 13.988281 44.746094 13.386719 46.453125 12.871094 C 48.160156 12.351562 49.886719 11.921875 51.636719 11.570312 C 53.386719 11.222656 55.148438 10.960938 56.921875 10.789062 C 58.695312 10.613281 60.476562 10.527344 62.257812 10.527344 Z M 62.257812 10.527344 "/></g><path style=" stroke:none;fill-rule:nonzero;fill:#f2d4b7;fill-opacity:1;" d="M 243.019531 122.941406 L 123.144531 122.941406 C 118.914062 122.941406 116.09375 120.121094 116.09375 115.890625 C 116.09375 111.660156 118.914062 108.839844 123.144531 108.839844 L 243.019531 108.839844 C 247.25 108.839844 250.070312 111.660156 250.070312 115.890625 C 250.070312 120.121094 247.25 122.941406 243.019531 122.941406 Z M 243.019531 122.941406 "/><path style=" stroke:none;fill-rule:nonzero;fill:#f2d4b7;fill-opacity:1;" d="M 283.492188 285.222656 L 263.875 265.757812 C 268.777344 258.804688 270.878906 251.160156 270.878906 242.816406 C 270.878906 219.878906 251.960938 201.109375 229.539062 201.109375 C 207.117188 201.109375 187.5 219.878906 187.5 242.816406 C 187.5 265.757812 206.417969 284.527344 228.839844 284.527344 C 237.246094 284.527344 245.65625 281.746094 251.960938 277.574219 L 271.582031 297.039062 C 274.382812 299.820312 279.988281 299.820312 282.792969 297.039062 C 286.296875 293.5625 286.296875 288 283.492188 285.222656 Z M 283.492188 285.222656 "/><path style=" stroke:none;fill-rule:nonzero;fill:#00bf63;fill-opacity:1;" d="M 173.886719 240.78125 C 173.886719 209.976562 199.726562 184.773438 230.589844 184.773438 C 238.488281 184.773438 245.664062 186.175781 252.84375 188.972656 L 252.84375 135.765625 C 252.84375 131.566406 249.972656 128.765625 245.664062 128.765625 L 123.640625 128.765625 C 115.746094 128.765625 109.285156 122.464844 109.285156 114.765625 C 109.285156 107.0625 115.746094 100.761719 123.640625 100.761719 L 245.664062 100.761719 C 249.972656 100.761719 252.84375 97.960938 252.84375 93.761719 C 252.84375 89.558594 249.972656 86.757812 245.664062 86.757812 L 123.640625 86.757812 C 107.851562 86.757812 94.929688 99.363281 94.929688 114.765625 L 94.929688 254.785156 C 94.929688 270.1875 107.851562 282.789062 123.640625 282.789062 L 193.984375 282.789062 C 181.78125 272.285156 173.886719 257.585938 173.886719 240.78125 Z M 173.886719 240.78125 "/></g></svg>