<svg xmlns="http://www.w3.org/2000/svg" xmlns:xlink="http://www.w3.org/1999/xlink" width="500" zoomAndPan="magnify" viewBox="0 0 375 374.999991" height="500" preserveAspectRatio="xMidYMid meet" version="1.2"><defs><clipPath id="30e2f72771"><path d="M 5 7.871094 L 370 7.871094 L 370 367.121094 L 5 367.121094 Z M 5 7.871094 "/></clipPath></defs><g id="ba247584cf"><g clip-rule="nonzero" clip-path="url(#30e2f72771)"><path style=" stroke:none;fill-rule:nonzero;fill:#f6f8ff;fill-opacity:1;" d="M 60.375 7.871094 L 314.613281 7.871094 C 316.425781 7.871094 318.230469 7.957031 320.03125 8.136719 C 321.832031 8.3125 323.621094 8.578125 325.394531 8.933594 C 327.171875 9.285156 328.925781 9.722656 330.65625 10.25 C 332.390625 10.773438 334.09375 11.382812 335.765625 12.078125 C 337.4375 12.769531 339.070312 13.542969 340.667969 14.394531 C 342.265625 15.25 343.816406 16.179688 345.320312 17.183594 C 346.824219 18.191406 348.277344 19.265625 349.675781 20.414062 C 351.074219 21.5625 352.414062 22.777344 353.695312 24.058594 C 354.976562 25.335938 356.1875 26.675781 357.335938 28.078125 C 358.484375 29.476562 359.5625 30.929688 360.570312 32.433594 C 361.574219 33.9375 362.503906 35.488281 363.355469 37.085938 C 364.210938 38.679688 364.984375 40.316406 365.675781 41.988281 C 366.367188 43.660156 366.976562 45.363281 367.503906 47.09375 C 368.027344 48.828125 368.46875 50.582031 368.820312 52.355469 C 369.175781 54.132812 369.441406 55.921875 369.617188 57.722656 C 369.792969 59.523438 369.882812 61.328125 369.882812 63.140625 L 369.882812 311.851562 C 369.882812 313.660156 369.792969 315.464844 369.617188 317.269531 C 369.441406 319.070312 369.175781 320.859375 368.820312 322.632812 C 368.46875 324.410156 368.027344 326.160156 367.503906 327.894531 C 366.976562 329.625 366.367188 331.328125 365.675781 333 C 364.984375 334.671875 364.210938 336.308594 363.355469 337.902344 C 362.503906 339.5 361.574219 341.050781 360.570312 342.554688 C 359.5625 344.0625 358.484375 345.515625 357.335938 346.914062 C 356.1875 348.3125 354.976562 349.652344 353.695312 350.933594 C 352.414062 352.210938 351.074219 353.425781 349.675781 354.574219 C 348.277344 355.722656 346.824219 356.800781 345.320312 357.804688 C 343.816406 358.8125 342.265625 359.742188 340.667969 360.59375 C 339.070312 361.445312 337.4375 362.21875 335.765625 362.914062 C 334.09375 363.605469 332.390625 364.214844 330.65625 364.738281 C 328.925781 365.265625 327.171875 365.703125 325.394531 366.058594 C 323.621094 366.410156 321.832031 366.675781 320.03125 366.855469 C 318.230469 367.03125 316.425781 367.121094 314.613281 367.121094 L 60.375 367.121094 C 58.566406 367.121094 56.757812 367.03125 54.957031 366.855469 C 53.15625 366.675781 51.367188 366.410156 49.59375 366.058594 C 47.816406 365.703125 46.0625 365.265625 44.332031 364.738281 C 42.597656 364.214844 40.898438 363.605469 39.226562 362.914062 C 37.550781 362.21875 35.917969 361.445312 34.320312 360.59375 C 32.726562 359.742188 31.175781 358.8125 29.667969 357.804688 C 28.164062 356.800781 26.710938 355.722656 25.3125 354.574219 C 23.914062 353.425781 22.574219 352.210938 21.292969 350.933594 C 20.015625 349.652344 18.800781 348.3125 17.652344 346.914062 C 16.503906 345.515625 15.425781 344.0625 14.421875 342.554688 C 13.414062 341.050781 12.484375 339.5 11.632812 337.902344 C 10.777344 336.308594 10.007812 334.671875 9.3125 333 C 8.621094 331.328125 8.011719 329.625 7.484375 327.894531 C 6.960938 326.160156 6.519531 324.410156 6.167969 322.632812 C 5.816406 320.859375 5.550781 319.070312 5.371094 317.269531 C 5.195312 315.464844 5.105469 313.660156 5.105469 311.851562 L 5.105469 63.140625 C 5.105469 61.328125 5.195312 59.523438 5.371094 57.722656 C 5.550781 55.921875 5.816406 54.132812 6.167969 52.355469 C 6.519531 50.582031 6.960938 48.828125 7.484375 47.09375 C 8.011719 45.363281 8.621094 43.660156 9.3125 41.988281 C 10.007812 40.316406 10.777344 38.679688 11.632812 37.085938 C 12.484375 35.488281 13.414062 33.9375 14.421875 32.433594 C 15.425781 30.929688 16.503906 29.476562 17.652344 28.078125 C 18.800781 26.675781 20.015625 25.335938 21.292969 24.058594 C 22.574219 22.777344 23.914062 21.5625 25.3125 20.414062 C 26.710938 19.265625 28.164062 18.191406 29.667969 17.183594 C 31.175781 16.179688 32.726562 15.25 34.320312 14.394531 C 35.917969 13.542969 37.550781 12.769531 39.226562 12.078125 C 40.898438 11.382812 42.597656 10.773438 44.332031 10.25 C 46.0625 9.722656 47.816406 9.285156 49.59375 8.933594 C 51.367188 8.578125 53.15625 8.3125 54.957031 8.136719 C 56.757812 7.957031 58.566406 7.871094 60.375 7.871094 Z M 60.375 7.871094 "/></g><path style=" stroke:none;fill-rule:nonzero;fill:#f7dece;fill-opacity:1;" d="M 152.195312 152.398438 L 153.453125 152.289062 C 153.929688 152.238281 154.359375 152.066406 154.71875 151.816406 L 154.710938 151.824219 C 155.914062 155.972656 157.386719 160.339844 159.226562 164.910156 C 161.589844 170.890625 163.914062 175.804688 166.519531 180.546875 L 166.160156 179.828125 C 165.945312 183.097656 165.683594 186.457031 165.34375 189.707031 C 165.179688 191.710938 164.785156 193.578125 164.183594 195.339844 L 164.230469 195.175781 C 164.121094 195.222656 163.96875 213.859375 163.96875 213.859375 C 163.976562 226.011719 172.394531 236.1875 183.710938 238.890625 L 183.890625 238.925781 C 184.402344 237.625 185.640625 236.71875 187.097656 236.71875 L 192.253906 236.71875 C 193.699219 236.734375 194.9375 237.632812 195.449219 238.898438 L 195.457031 238.925781 C 206.980469 236.214844 215.433594 226.039062 215.476562 213.875 C 215.476562 213.875 215.164062 195.3125 215.003906 195.1875 C 214.507812 193.613281 214.113281 191.765625 213.90625 189.859375 L 213.898438 189.726562 C 213.582031 186.457031 213.375 183.179688 213.078125 179.847656 C 215.296875 175.839844 217.625 170.9375 219.671875 165.878906 L 220.015625 164.929688 C 221.855469 160.355469 223.28125 156 224.53125 151.839844 C 224.882812 152.09375 225.3125 152.261719 225.78125 152.316406 L 225.789062 152.316406 L 227.054688 152.425781 C 228.582031 152.585938 229.929688 151.328125 230.054688 149.378906 L 231.421875 132.035156 C 231.421875 132.027344 231.421875 132.019531 231.421875 132.019531 C 231.421875 130.554688 230.324219 129.351562 228.914062 129.171875 L 228.742188 129.171875 C 229.09375 126.648438 229.292969 123.738281 229.292969 120.78125 C 229.292969 114.335938 228.339844 108.101562 226.570312 102.238281 L 226.6875 102.695312 C 221.503906 91.324219 211.230469 83.070312 198.855469 80.761719 L 198.621094 80.726562 C 195.960938 80.179688 192.863281 79.808594 189.699219 79.71875 L 189.511719 79.71875 C 186.289062 79.78125 183.191406 80.140625 180.191406 80.78125 L 180.511719 80.726562 C 167.921875 83.097656 157.664062 91.351562 152.542969 102.453125 L 152.445312 102.695312 C 150.777344 108.082031 149.8125 114.28125 149.8125 120.695312 C 149.8125 123.683594 150.019531 126.628906 150.425781 129.503906 L 150.390625 129.171875 C 148.960938 129.332031 147.855469 130.527344 147.855469 131.984375 L 147.855469 132.046875 L 149.222656 149.390625 C 149.347656 151.382812 150.710938 152.585938 152.183594 152.425781 Z M 152.195312 152.398438 "/><path style=" stroke:none;fill-rule:nonzero;fill:#00bf63;fill-opacity:1;" d="M 285.894531 267.175781 C 285.265625 239.875 282.535156 233.695312 281.0625 229.507812 C 280.476562 227.828125 280 216.476562 261.246094 209.113281 C 249.75 204.585938 234.914062 204.496094 222.359375 199.1875 L 222.359375 213.953125 C 222.332031 229.832031 210.960938 243.042969 195.917969 245.925781 L 195.710938 245.964844 C 195.429688 247.597656 194.03125 248.820312 192.351562 248.835938 L 192.1875 248.835938 L 192.1875 259.972656 C 192.1875 270.859375 201.007812 279.679688 211.894531 279.679688 C 222.78125 279.679688 231.597656 270.859375 231.597656 259.972656 L 231.597656 252.195312 C 226.140625 251.378906 222 246.726562 222 241.105469 C 222 234.914062 227.019531 229.894531 233.207031 229.894531 C 239.394531 229.894531 244.414062 234.914062 244.414062 241.105469 C 244.414062 246.007812 241.261719 250.175781 236.878906 251.703125 L 236.800781 251.730469 L 236.800781 260.394531 C 236.800781 274.15625 225.644531 285.3125 211.886719 285.3125 C 198.125 285.3125 186.96875 274.15625 186.96875 260.394531 C 186.96875 260.242188 186.96875 260.101562 186.96875 259.945312 L 186.96875 259.964844 L 186.96875 248.730469 C 185.371094 248.621094 184.078125 247.417969 183.828125 245.871094 L 183.828125 245.855469 C 168.648438 242.898438 157.332031 229.734375 157.296875 213.917969 L 157.296875 199.035156 C 144.683594 204.449219 129.757812 204.558594 118.199219 209.09375 C 99.390625 216.449219 98.960938 227.777344 98.386719 229.480469 C 96.949219 233.683594 94.183594 239.835938 93.554688 267.160156 C 93.445312 270.75 93.554688 276.257812 104.386719 281.070312 C 127.972656 290.324219 158.355469 293.195312 188.308594 295.261719 L 191.183594 295.261719 C 221.199219 293.214844 251.539062 290.351562 275.105469 281.070312 C 285.894531 276.285156 285.992188 270.804688 285.894531 267.175781 Z M 154.035156 256.039062 L 142.84375 256.039062 L 142.84375 267.277344 L 134.851562 267.277344 L 134.851562 256.074219 L 123.660156 256.074219 L 123.660156 248.082031 L 134.851562 248.082031 L 134.851562 236.890625 L 142.84375 236.890625 L 142.84375 248.082031 L 154.035156 248.082031 Z M 154.035156 256.039062 "/><path style=" stroke:none;fill-rule:nonzero;fill:#000000;fill-opacity:1;" d="M 239.265625 241.011719 C 239.265625 237.671875 236.5625 234.960938 233.21875 234.960938 C 229.878906 234.960938 227.175781 237.664062 227.175781 241.003906 C 227.175781 244.34375 229.878906 247.046875 233.21875 247.046875 C 236.554688 247.046875 239.257812 244.34375 239.265625 241.011719 Z M 239.265625 241.011719 "/></g></svg>