<svg xmlns="http://www.w3.org/2000/svg" xmlns:xlink="http://www.w3.org/1999/xlink" width="500" zoomAndPan="magnify" viewBox="0 0 375 374.999991" height="500" preserveAspectRatio="xMidYMid meet" version="1.2"><defs><clipPath id="fe0abceac0"><path d="M 14.089844 14.089844 L 360.589844 14.089844 L 360.589844 360.589844 L 14.089844 360.589844 Z M 14.089844 14.089844 "/></clipPath></defs><g id="9f4d758ac6"><path style=" stroke:none;fill-rule:nonzero;fill:#00bf63;fill-opacity:1;" d="M 182.042969 274.875 L 268.667969 224.867188 L 182.042969 174.851562 L 182.042969 205.617188 L 106.007812 205.617188 L 106.007812 244.117188 L 182.042969 244.117188 Z M 182.042969 274.875 "/><path style=" stroke:none;fill-rule:nonzero;fill:#00bf63;fill-opacity:1;" d="M 110.367188 91.089844 C 99.738281 91.089844 91.117188 99.707031 91.117188 110.339844 C 91.117188 120.96875 99.738281 129.589844 110.367188 129.589844 L 264.367188 129.589844 C 275 129.589844 283.617188 120.96875 283.617188 110.339844 C 283.617188 99.707031 275 91.089844 264.367188 91.089844 Z M 110.367188 91.089844 "/><g clip-rule="nonzero" clip-path="url(#fe0abceac0)"><path style=" stroke:none;fill-rule:evenodd;fill:#00bf63;fill-opacity:1;" d="M 71.839844 14.089844 C 39.949219 14.089844 14.089844 39.949219 14.089844 71.839844 L 14.089844 302.839844 C 14.089844 334.738281 39.949219 360.589844 71.839844 360.589844 L 302.839844 360.589844 C 334.738281 360.589844 360.589844 334.738281 360.589844 302.839844 L 360.589844 71.839844 C 360.589844 39.949219 334.738281 14.089844 302.839844 14.089844 Z M 302.839844 52.589844 L 71.839844 52.589844 C 61.210938 52.589844 52.589844 61.210938 52.589844 71.839844 L 52.589844 302.839844 C 52.589844 313.472656 61.210938 322.09375 71.839844 322.09375 L 302.839844 322.09375 C 313.472656 322.09375 322.09375 313.472656 322.09375 302.839844 L 322.09375 71.839844 C 322.09375 61.210938 313.472656 52.589844 302.839844 52.589844 Z M 302.839844 52.589844 "/></g></g></svg>